<?xml version="1.0" standalone="no"?>
<!DOCTYPE svg PUBLIC "-//W3C//DTD SVG 1.1//EN" "http://www.w3.org/Graphics/SVG/1.1/DTD/svg11.dtd">
<svg version="1.1" xmlns="http://www.w3.org/2000/svg" viewBox="0 0 192.09070935101818 185.41300689028867" width="576.2721280530545" height="556.239020670866" filter="invert(93%) hue-rotate(180deg)"><!-- svg-source:excalidraw --><metadata></metadata><defs><style class="style-fonts">
      </style></defs><g stroke-linecap="round" transform="translate(10 10) rotate(0 86.04535467550909 82.70650344514434)"><path d="M0 0 L172.09 0 L172.09 165.41 L0 165.41" stroke="none" stroke-width="0" fill="#000"></path><path d="M0 0 C59.12 0, 118.24 0, 172.09 0 M0 0 C51 0, 102.01 0, 172.09 0 M172.09 0 C172.09 64.87, 172.09 129.74, 172.09 165.41 M172.09 0 C172.09 39.59, 172.09 79.18, 172.09 165.41 M172.09 165.41 C110.83 165.41, 49.56 165.41, 0 165.41 M172.09 165.41 C133.96 165.41, 95.83 165.41, 0 165.41 M0 165.41 C0 109.59, 0 53.78, 0 0 M0 165.41 C0 112.74, 0 60.07, 0 0" stroke="#fff" stroke-width="1" fill="none"></path></g><g stroke-linecap="round" transform="translate(42.076771351018124 126.27629269329191) rotate(0 53.96858299999997 8.350929822707258)"><path d="M0 0 L107.94 0 L107.94 16.7 L0 16.7" stroke="none" stroke-width="0" fill="white"></path><path d="M0 0 C34.99 0, 69.98 0, 107.94 0 M0 0 C22.9 0, 45.8 0, 107.94 0 M107.94 0 C107.94 5.94, 107.94 11.89, 107.94 16.7 M107.94 0 C107.94 6.2, 107.94 12.39, 107.94 16.7 M107.94 16.7 C69.3 16.7, 30.66 16.7, 0 16.7 M107.94 16.7 C74.55 16.7, 41.16 16.7, 0 16.7 M0 16.7 C0 11.76, 0 6.83, 0 0 M0 16.7 C0 13.15, 0 9.59, 0 0" stroke="#e9ecef" stroke-width="1" fill="none"></path></g><g stroke-linecap="round" transform="translate(72.370183275302 53.93078413817784) rotate(0 23.26542486602102 44.52368410026429)"><path d="M0 0 L46.53 0 L46.53 89.05 L0 89.05" stroke="none" stroke-width="0" fill="white"></path><path d="M0 0 C17.32 0, 34.65 0, 46.53 0 M0 0 C15.83 0, 31.67 0, 46.53 0 M46.53 0 C46.53 29.82, 46.53 59.63, 46.53 89.05 M46.53 0 C46.53 19.05, 46.53 38.1, 46.53 89.05 M46.53 89.05 C29.76 89.05, 12.99 89.05, 0 89.05 M46.53 89.05 C36.32 89.05, 26.12 89.05, 0 89.05 M0 89.05 C0 61.4, 0 33.75, 0 0 M0 89.05 C0 57.35, 0 25.66, 0 0" stroke="#ffffff" stroke-width="1" fill="none"></path></g><g stroke-linecap="round" transform="translate(42.07677168735768 92.70650333870799) rotate(0 20.883967296715014 25.135824475288246)"><path d="M10.44 0 C16.78 0, 23.13 0, 31.33 0 C38.29 0, 41.77 3.48, 41.77 10.44 C41.77 18.68, 41.77 26.91, 41.77 39.83 C41.77 46.79, 38.29 50.27, 31.33 50.27 C26.89 50.27, 22.46 50.27, 10.44 50.27 C3.48 50.27, 0 46.79, 0 39.83 C0 30.38, 0 20.93, 0 10.44 C0 3.48, 3.48 0, 10.44 0" stroke="none" stroke-width="0" fill="white"></path><path d="M10.44 0 C17.48 0, 24.52 0, 31.33 0 M10.44 0 C15.83 0, 21.21 0, 31.33 0 M31.33 0 C38.29 0, 41.77 3.48, 41.77 10.44 M31.33 0 C38.29 0, 41.77 3.48, 41.77 10.44 M41.77 10.44 C41.77 19.38, 41.77 28.33, 41.77 39.83 M41.77 10.44 C41.77 20.95, 41.77 31.46, 41.77 39.83 M41.77 39.83 C41.77 46.79, 38.29 50.27, 31.33 50.27 M41.77 39.83 C41.77 46.79, 38.29 50.27, 31.33 50.27 M31.33 50.27 C25.09 50.27, 18.86 50.27, 10.44 50.27 M31.33 50.27 C25.79 50.27, 20.26 50.27, 10.44 50.27 M10.44 50.27 C3.48 50.27, 0 46.79, 0 39.83 M10.44 50.27 C3.48 50.27, 0 46.79, 0 39.83 M0 39.83 C0 31.39, 0 22.95, 0 10.44 M0 39.83 C0 29.89, 0 19.94, 0 10.44 M0 10.44 C0 3.48, 3.48 0, 10.44 0 M0 10.44 C0 3.48, 3.48 0, 10.44 0" stroke="#ffffff" stroke-width="1" fill="none"></path></g><g stroke-linecap="round" transform="translate(104.89736737652993 92.70650333871163) rotate(0 22.55828503276507 25.135824499997398)"><path d="M11.28 0 C18.05 0, 24.81 0, 33.84 0 C41.36 0, 45.12 3.76, 45.12 11.28 C45.12 19.45, 45.12 27.61, 45.12 38.99 C45.12 46.51, 41.36 50.27, 33.84 50.27 C24.85 50.27, 15.86 50.27, 11.28 50.27 C3.76 50.27, 0 46.51, 0 38.99 C0 31.98, 0 24.96, 0 11.28 C0 3.76, 3.76 0, 11.28 0" stroke="none" stroke-width="0" fill="white"></path><path d="M11.28 0 C15.88 0, 20.48 0, 33.84 0 M11.28 0 C17.26 0, 23.24 0, 33.84 0 M33.84 0 C41.36 0, 45.12 3.76, 45.12 11.28 M33.84 0 C41.36 0, 45.12 3.76, 45.12 11.28 M45.12 11.28 C45.12 19.78, 45.12 28.27, 45.12 38.99 M45.12 11.28 C45.12 18.31, 45.12 25.33, 45.12 38.99 M45.12 38.99 C45.12 46.51, 41.36 50.27, 33.84 50.27 M45.12 38.99 C45.12 46.51, 41.36 50.27, 33.84 50.27 M33.84 50.27 C26.66 50.27, 19.48 50.27, 11.28 50.27 M33.84 50.27 C27.6 50.27, 21.36 50.27, 11.28 50.27 M11.28 50.27 C3.76 50.27, 0 46.51, 0 38.99 M11.28 50.27 C3.76 50.27, 0 46.51, 0 38.99 M0 38.99 C0 29.51, 0 20.03, 0 11.28 M0 38.99 C0 28.98, 0 18.96, 0 11.28 M0 11.28 C0 3.76, 3.76 0, 11.28 0 M0 11.28 C0 3.76, 3.76 0, 11.28 0" stroke="#ffffff" stroke-width="1" fill="none"></path></g></svg>